<svg width="246" height="29" viewBox="0 0 246 29" fill="none" xmlns="http://www.w3.org/2000/svg">
<path d="M49.6856 21.3005V15.0372L55.2263 21.2803H59.9611L53.4734 14.0674L59.941 7.17768H55.6091L49.6856 13.4612V7.15747H46.0588V21.3005H49.6856Z" fill="black"/>
<path d="M62.9194 14.2287C62.9194 11.5617 66.0224 10.1272 71.7847 10.1272H71.825C77.5672 10.1272 80.6901 11.5617 80.6901 14.2287C80.6901 16.8956 77.5873 18.3302 71.825 18.3302H71.7847C66.0224 18.3302 62.9194 16.8956 62.9194 14.2287ZM71.825 21.5629C79.985 21.5629 84.8004 18.8354 84.8004 14.2287C84.8004 9.37968 80.4282 6.89453 71.825 6.89453H71.7847C63.6247 6.89453 58.8092 9.62213 58.8092 14.2287C58.789 19.098 63.1612 21.5629 71.7645 21.5629H71.825Z" fill="black"/>
<path d="M89.9247 12.8551V9.84465H92.3828C94.2163 9.84465 95.0462 10.3093 95.0462 11.3398C95.0462 12.3702 94.2163 12.8551 92.3828 12.8551H89.9247ZM89.9247 18.6133V15.603H92.4835C94.3573 15.603 95.1833 16.0676 95.1833 17.1182C95.1833 18.1689 94.3775 18.6133 92.4835 18.6133H89.9247ZM86.3906 21.3005H93.1241C96.8274 21.3005 98.7657 19.9873 98.7657 17.4616C98.7657 15.8453 97.8589 14.7341 96.1021 14.229C97.7744 13.6835 98.6206 12.6126 98.6206 10.9963C98.6206 8.47075 96.6863 7.15747 92.9791 7.15747H86.3906V21.3005Z" fill="black"/>
<path d="M107.711 15.603L112.103 10.1881L116.5 15.6231L107.711 15.603ZM98.4753 21.3005H103.109L105.225 18.6739H118.982L121.118 21.3005H125.877L114.392 7.15747H109.96L98.4753 21.3005Z" fill="black"/>
<path d="M126.276 21.3005H126.881C130.665 21.3005 132.764 19.765 132.764 13.7037V10.3902H136.693V21.3005H140.32V7.15747H129.274V13.1784C129.274 17.2193 128.831 18.0274 126.881 18.0274H126.276V21.3005Z" fill="black"/>
<path d="M146.907 18.1689V14.6533H156.416C159.479 14.6533 160.572 15.0978 160.572 16.4111C160.572 17.7243 159.479 18.1689 156.416 18.1689H146.907ZM142.978 21.3005H156.256C162.142 21.3005 164.601 19.5024 164.601 16.209C164.601 13.2188 162.118 11.5216 156.256 11.5216H146.907V7.15747H142.978V21.3005Z" fill="black"/>
<path d="M179.035 21.3005H179.663V18.1285H178.091C172.853 18.1285 170.032 16.8354 170.032 14.229C170.032 11.6226 172.853 10.3093 178.091 10.3093H179.663V7.15747H179.035C170.775 7.15747 165.901 9.78404 165.901 14.229C165.901 18.9165 170.335 21.3005 179.035 21.3005Z" fill="black"/>
<path d="M185.11 18.1689V14.6533H194.62C197.679 14.6533 198.768 15.0978 198.768 16.4111C198.768 17.7243 197.679 18.1689 194.62 18.1689H185.11ZM181.182 21.3005H194.455C200.339 21.3005 202.797 19.5024 202.797 16.209C202.797 13.2188 200.322 11.5216 194.455 11.5216H185.11V7.15747H181.182V21.3005Z" fill="black"/>
<path d="M208.275 21.3005V15.0372L213.817 21.2803H218.552L212.064 14.0674L218.531 7.17768H214.2L208.275 13.4612V7.15747H204.649V21.3005H208.275Z" fill="black"/>
<path d="M227.822 15.603L232.223 10.1881L236.619 15.6231L227.822 15.603ZM218.579 21.3005H223.213L225.327 18.6739H239.105L241.245 21.3005H246L234.516 7.15747H230.082L218.579 21.3005Z" fill="black"/>
<path d="M38.7192 0H38.7006C22.1727 0 13.199 5.0195 13.199 14.3125C13.199 23.4894 22.2114 28.4685 38.7006 28.4685H38.7192V0Z" fill="black"/>
<path d="M11.8289 26.9144C3.97617 24.8647 0 20.6018 0 14.1635C0 14.1419 4.48748e-05 14.1203 0.000134628 14.0986C0.000134628 8.08311 4.233 3.71836 11.8289 1.50586V26.9144Z" fill="black"/>
</svg>
